<?xml version="1.0" standalone="no"?>
<!DOCTYPE svg PUBLIC "-//W3C//DTD SVG 20010904//EN"
 "http://www.w3.org/TR/2001/REC-SVG-20010904/DTD/svg10.dtd">
<svg version="1.0" xmlns="http://www.w3.org/2000/svg"
 width="1200.000000pt" height="1200.000000pt" viewBox="0 0 1200.000000 1200.000000"
 preserveAspectRatio="xMidYMid meet">

<g transform="translate(0.000000,1200.000000) scale(0.100000,-0.100000)"
fill="#000000" stroke="none">
<path d="M7846 9146 c3 -8 13 -17 22 -21 13 -5 13 -2 -3 15 -21 24 -26 25 -19
6z"/>
<path d="M4926 4648 c3 -5 -8 -6 -25 -3 -19 3 -31 1 -31 -6 0 -6 -16 -10 -37
-9 -47 3 -103 -9 -103 -22 0 -5 -4 -7 -9 -4 -10 6 -133 -35 -142 -48 -4 -4
-29 -7 -56 -5 -45 4 -49 2 -46 -16 6 -29 -42 -48 -150 -59 -26 -3 -45 -1 -42
4 3 5 -5 11 -17 13 -13 3 13 4 57 2 97 -5 81 1 -38 14 -72 7 -97 6 -142 -8
-31 -10 -52 -20 -49 -24 4 -4 -11 -7 -34 -7 -22 0 -44 -5 -48 -11 -4 -8 3 -9
25 -4 20 4 31 3 31 -4 0 -6 -12 -11 -27 -11 -30 -1 -72 -25 -53 -32 6 -2 -7
-3 -29 -3 -23 0 -41 1 -41 2 0 1 15 7 33 13 l32 10 -37 -5 c-21 -3 -38 -1 -40
5 -2 7 -21 7 -58 1 -30 -6 -82 -12 -115 -14 -87 -6 -155 -26 -148 -43 3 -8 0
-14 -6 -14 -6 0 -11 5 -11 10 0 6 -9 10 -20 10 -11 0 -20 -4 -20 -10 0 -5 7
-10 15 -10 8 0 15 -4 15 -10 0 -16 30 -12 36 5 4 8 12 15 20 15 22 0 16 -14
-13 -32 -29 -16 -102 -16 -112 1 -3 5 -17 11 -31 14 -17 3 -10 5 20 7 43 3 43
3 -18 10 -38 4 -70 14 -84 26 -12 10 -18 13 -14 7 4 -8 1 -13 -8 -13 -9 0 -16
-5 -16 -11 0 -5 -5 -7 -11 -4 -6 4 -5 -2 3 -14 17 -27 27 -27 22 2 -2 12 -1
16 2 9 5 -10 9 -10 20 -1 23 19 16 0 -11 -29 -15 -16 -25 -21 -25 -13 0 11 -3
11 -17 0 -15 -11 -16 -11 -5 1 14 16 16 34 3 26 -5 -4 -12 0 -14 6 -4 10 -6
10 -6 1 -1 -7 -7 -13 -14 -13 -8 0 -24 -9 -37 -20 -24 -21 -46 -27 -35 -10 3
6 1 10 -4 10 -6 0 -11 -5 -11 -11 0 -6 -31 -9 -86 -8 -60 1 -88 -2 -94 -11 -5
-8 -9 -9 -14 -1 -4 6 -15 11 -24 11 -13 0 -13 -2 4 -15 23 -17 15 -19 -22 -5
-17 7 -31 7 -38 1 -6 -5 -23 -12 -36 -15 -28 -5 -75 -20 -104 -32 -15 -6 -17
-4 -11 7 6 11 5 11 -5 2 -7 -6 -19 -9 -26 -6 -8 3 -14 0 -14 -7 0 -6 -4 -9 -9
-6 -4 3 -14 -7 -20 -22 -9 -18 -9 -28 -2 -30 16 -5 13 -19 -4 -19 -8 0 -15 8
-15 18 0 10 -9 19 -22 22 -16 3 -15 4 4 2 16 -1 30 5 33 13 8 21 6 25 -7 15
-7 -6 -20 -11 -28 -11 -58 -5 -94 -12 -103 -21 -15 -15 -30 -14 -21 2 5 9 4 9
-6 0 -19 -18 -9 -23 50 -28 44 -3 50 -2 39 11 -7 8 -21 12 -33 9 -18 -5 -18
-4 -4 5 17 11 48 4 48 -11 0 -4 6 -7 13 -5 6 1 9 1 4 -1 -4 -3 -5 -8 -2 -12 5
-10 -91 -7 -123 3 -12 4 -20 12 -17 17 4 5 1 9 -4 9 -15 0 -14 -27 2 -33 6 -3
2 -4 -9 -4 -15 1 -20 6 -16 15 4 11 -1 11 -21 -2 -22 -15 -29 -16 -54 -4 -34
17 -73 12 -73 -8 0 -9 -5 -12 -11 -8 -7 4 -9 0 -5 -13 5 -15 -1 -24 -27 -38
-19 -10 -40 -15 -48 -12 -9 3 -7 6 7 6 22 1 54 30 54 49 0 19 -15 14 -25 -10
-6 -12 -21 -23 -35 -24 l-25 -4 28 16 c15 8 27 19 27 25 0 5 -11 2 -25 -7 -18
-12 -25 -13 -25 -4 0 10 -3 10 -15 0 -8 -6 -19 -9 -25 -5 -5 3 -10 1 -10 -4 0
-6 -10 -10 -21 -8 -12 1 -24 -4 -26 -10 -3 -7 3 -13 13 -13 9 0 15 -3 11 -6
-9 -9 -48 6 -42 17 4 5 2 9 -3 9 -5 0 -12 -9 -15 -21 -4 -14 -10 -18 -18 -13
-22 13 -73 12 -88 -3 -10 -10 -17 -11 -24 -4 -6 6 -16 11 -21 11 -6 0 -4 -5 4
-10 11 -8 -3 -10 -48 -9 -43 2 -66 -2 -72 -10 -5 -9 -10 -10 -14 -2 -4 6 -15
11 -24 11 -13 0 -13 -2 4 -15 23 -17 58 -20 48 -3 -5 7 -3 8 5 3 9 -5 10 -10
2 -18 -8 -8 -24 -7 -58 6 -29 11 -50 14 -57 8 -11 -9 -20 -12 -91 -27 -16 -4
-36 -11 -42 -17 -9 -6 -13 -5 -13 4 0 10 -3 10 -11 2 -6 -6 -18 -9 -27 -6 -11
5 -13 3 -7 -7 6 -10 4 -12 -9 -7 -16 6 -17 3 -12 -20 5 -20 4 -24 -3 -13 -9
13 -10 13 -15 0 -13 -42 -14 -44 -15 -22 -1 12 -4 22 -7 22 -9 0 -34 -27 -29
-32 2 -2 -15 -4 -37 -4 -23 0 -44 -6 -46 -12 -6 -18 -79 -15 -85 3 -4 8 -1 17
5 21 6 4 9 3 6 -2 -7 -10 37 -16 69 -9 14 3 20 10 17 19 -7 18 23 28 46 16 24
-13 33 -13 25 0 -3 6 1 10 10 10 9 0 13 5 10 10 -4 6 -11 8 -16 4 -8 -5 -35
-9 -103 -17 -21 -2 -35 -27 -16 -27 6 0 8 5 5 10 -3 6 -1 10 4 10 6 0 11 -7
11 -15 0 -16 -9 -19 -34 -9 -9 3 -13 10 -10 15 7 11 1 11 -31 -1 -19 -7 -24
-7 -19 2 5 8 2 9 -10 5 -10 -4 -23 -7 -29 -7 -7 0 -6 -5 3 -11 12 -8 9 -9 -10
-4 -37 10 -73 7 -82 -8 -4 -6 -8 -8 -8 -4 0 4 -6 2 -14 -5 -10 -9 -11 -17 -4
-26 15 -18 3 -25 -21 -13 -16 9 -26 8 -46 -5 -14 -9 -23 -20 -20 -24 3 -4 -3
-7 -13 -6 -9 0 -17 -6 -17 -14 -1 -8 -6 -24 -12 -35 -14 -27 -7 -42 28 -61 26
-13 30 -13 35 1 5 12 9 11 23 -6 l16 -21 20 22 c18 20 18 21 0 14 -14 -6 -16
-4 -10 6 6 10 3 12 -13 8 -28 -8 -64 29 -42 42 20 13 21 13 54 -14 29 -24 43
-71 24 -83 -7 -3 -8 -1 -4 5 4 7 2 12 -4 12 -7 0 -10 -6 -7 -12 2 -7 11 -12
21 -10 9 2 16 -4 16 -12 0 -9 9 -13 25 -11 22 2 23 0 13 -14 -7 -9 -8 -13 -4
-9 5 4 24 -6 43 -23 38 -32 57 -34 59 -3 1 15 0 16 -3 2 -7 -29 -21 -20 -16
10 3 25 3 26 -6 5 -11 -26 -27 -32 -17 -8 4 11 0 15 -11 13 -8 -2 -17 4 -18
13 -2 12 6 16 35 15 21 0 36 -4 34 -8 -3 -5 0 -8 7 -8 8 0 10 -11 6 -36 -5
-32 -4 -34 15 -28 16 5 20 3 15 -10 -3 -8 -1 -18 5 -22 7 -4 8 -3 4 4 -4 7 -2
12 3 12 6 0 11 -6 11 -12 1 -7 7 -2 15 12 17 30 19 22 5 -16 -9 -22 -8 -25 3
-16 10 8 20 5 42 -13 17 -15 23 -25 14 -26 -18 0 17 -14 59 -22 23 -5 32 -3
32 6 0 9 -12 13 -35 12 -20 -1 -33 0 -30 4 3 3 23 6 44 6 36 1 38 -1 31 -21
-5 -12 -6 -25 -2 -29 3 -3 -2 -3 -13 0 -16 5 -17 5 -5 -3 8 -6 18 -8 23 -5 6
3 17 -3 26 -14 21 -26 86 -65 94 -56 4 3 7 0 7 -8 0 -11 2 -11 10 1 8 13 10
12 10 -3 0 -10 5 -15 10 -12 6 4 24 -1 42 -9 36 -18 41 -19 34 -7 -3 4 7 6 22
3 l27 -6 -25 -7 c-24 -7 -24 -10 3 -13 6 0 16 -11 22 -23 5 -13 13 -23 17 -23
12 0 10 28 -2 35 -5 3 -10 11 -10 17 0 6 6 5 16 -2 9 -8 14 -25 12 -44 -2 -17
2 -31 7 -31 22 -2 55 -17 55 -26 0 -6 5 -7 10 -4 6 3 10 11 10 16 0 6 -4 8 -8
5 -4 -2 -14 -1 -21 3 -9 6 -5 10 12 13 22 4 25 2 23 -23 -1 -15 0 -27 3 -27 4
0 17 0 30 -1 20 -1 21 -3 11 -16 -11 -13 -10 -14 11 -7 15 6 33 5 47 -1 18 -8
25 -8 33 4 5 8 9 10 9 4 0 -18 -15 -30 -40 -33 -21 -2 -22 -1 -10 8 13 10 12
11 -3 6 -12 -4 -16 -2 -11 6 5 7 3 8 -6 3 -10 -6 -8 -12 9 -27 13 -10 27 -15
32 -12 5 3 9 -1 9 -8 0 -8 5 -6 11 5 11 19 29 23 29 6 0 -5 -4 -7 -10 -4 -6 3
-10 -1 -10 -9 0 -8 5 -18 12 -22 7 -5 8 -3 3 7 -5 8 0 7 12 -4 19 -16 21 -16
38 3 10 11 30 20 44 19 14 0 20 -3 14 -6 -24 -9 -13 -19 22 -18 19 1 32 -2 29
-7 -3 -4 0 -8 5 -8 6 0 11 -5 11 -11 0 -6 -9 -8 -22 -4 -22 7 -22 7 -3 -8 15
-12 17 -18 7 -29 -6 -8 -9 -18 -5 -21 9 -10 25 -9 19 1 -3 5 1 9 8 9 9 0 12
-7 8 -16 -5 -14 -3 -14 14 1 19 16 20 16 32 -3 7 -11 16 -17 21 -14 12 7 32
-19 34 -44 0 -11 6 -19 12 -18 5 1 8 -5 7 -13 -2 -8 0 -12 4 -7 4 4 16 0 26
-10 10 -9 21 -13 24 -10 4 3 21 -1 38 -10 17 -10 34 -16 39 -15 4 1 7 -4 7
-11 0 -15 110 -84 125 -78 23 8 55 9 55 1 0 -14 -18 -21 -23 -10 -3 6 -4 5 -3
-2 1 -7 12 -18 23 -23 12 -6 28 -17 37 -24 11 -9 16 -10 16 -2 0 6 -7 14 -15
17 -8 4 -12 10 -9 16 10 15 34 -13 35 -41 l0 -26 11 23 c10 19 8 27 -10 45
-19 18 -25 20 -42 9 -27 -16 -35 -15 -16 3 19 19 31 19 67 -2 18 -11 27 -24
26 -37 -1 -13 3 -20 11 -18 8 1 11 -2 8 -7 -4 -5 -2 -12 4 -16 6 -4 8 -10 5
-15 -6 -9 27 -31 42 -29 30 5 53 -3 53 -18 0 -11 27 -35 66 -61 37 -23 61 -36
55 -28 -10 12 -9 15 8 13 11 -1 18 -3 16 -6 -8 -8 38 -41 57 -41 10 0 18 -4
18 -10 0 -5 10 -14 21 -21 17 -8 20 -8 14 1 -5 8 -3 11 6 8 8 -3 14 -10 14
-16 0 -18 35 -54 48 -49 7 2 14 12 15 23 2 10 7 23 11 27 10 10 7 -25 -3 -41
-10 -17 1 -32 19 -26 8 4 18 -1 21 -10 3 -9 11 -16 18 -16 6 0 28 -14 49 -31
20 -17 37 -26 37 -20 0 5 -8 15 -17 20 -10 6 -13 11 -7 11 13 0 42 -30 43 -45
1 -5 5 -10 10 -10 5 0 13 -3 17 -8 4 -4 12 -7 18 -7 5 0 1 6 -10 14 -18 14
-18 15 9 12 15 -1 30 -6 34 -9 9 -10 25 -9 19 1 -3 5 13 9 35 8 32 0 37 -3 24
-12 -19 -14 -20 -28 -1 -21 9 4 13 -4 12 -26 -1 -19 7 -41 18 -54 17 -20 20
-21 45 -6 24 14 25 14 7 -1 -17 -13 -18 -18 -6 -29 10 -10 11 -9 5 2 -6 11 -4
13 9 8 10 -4 28 -7 41 -7 15 0 28 -9 35 -22 9 -20 9 -21 -2 -7 -7 9 -19 14
-26 11 -19 -6 42 -38 81 -41 5 -1 5 -6 1 -12 -4 -7 2 -6 17 2 21 11 23 11 11
-3 -17 -22 -8 -25 64 -24 39 1 66 -3 73 -12 10 -10 7 -11 -16 -6 -15 4 -30 8
-32 10 -2 2 -12 -1 -22 -7 -13 -7 -19 -6 -19 1 0 6 -5 8 -11 4 -15 -9 9 -24
28 -17 7 3 13 0 13 -6 0 -6 5 -11 12 -11 6 0 20 -8 31 -18 16 -13 19 -14 15
-2 -2 8 -15 21 -29 27 -13 7 -18 13 -11 13 25 0 52 -21 52 -40 0 -23 15 -35
51 -39 6 0 9 -8 5 -16 -6 -16 -5 -16 33 -20 13 -1 26 -6 30 -11 3 -5 13 -10
21 -12 8 -2 17 -8 18 -13 2 -5 13 -9 23 -9 11 0 17 -5 14 -10 -4 -6 -1 -9 7
-8 7 2 12 -3 10 -10 -1 -8 2 -11 8 -7 5 3 10 1 10 -6 0 -8 4 -8 15 1 13 11 14
10 10 -1 -4 -11 5 -15 35 -16 29 -1 38 2 33 10 -5 9 -3 9 8 1 8 -5 28 -10 46
-10 17 1 29 -2 26 -6 -2 -5 1 -8 7 -8 7 0 10 -16 8 -42 -2 -29 1 -43 10 -44 6
-1 17 -2 23 -3 6 0 9 -7 6 -15 -7 -19 22 -30 39 -15 11 9 27 7 66 -6 29 -10
62 -19 72 -20 23 -2 30 -31 10 -39 -17 -7 -18 5 -1 24 10 12 9 12 -5 1 -15
-11 -22 -50 -8 -49 23 2 40 -4 38 -13 -2 -6 3 -14 11 -17 10 -3 11 0 5 9 -7
12 -5 12 9 0 11 -9 17 -10 17 -2 0 8 6 7 20 -1 20 -13 20 -13 -2 -20 -23 -6
-23 -6 -1 -7 12 -1 25 -6 28 -11 4 -6 10 -8 15 -5 4 3 10 -3 12 -13 3 -10 12
-19 21 -19 9 0 13 5 10 10 -3 6 -1 7 5 3 7 -4 12 -16 12 -27 0 -16 4 -19 21
-14 16 5 19 4 14 -5 -5 -9 -4 -11 4 -6 6 4 9 11 7 15 -3 4 1 8 9 8 8 0 12 -4
9 -9 -3 -4 6 -19 20 -33 15 -14 26 -23 26 -19 0 3 8 0 17 -7 9 -8 14 -9 11 -4
-10 17 45 14 60 -3 13 -16 13 -16 8 0 -4 14 0 18 22 17 24 0 25 -1 7 -9 -11
-5 -15 -9 -10 -9 6 -1 4 -5 -4 -10 -16 -10 -53 -2 -45 10 3 5 1 9 -5 9 -5 0
-9 -9 -8 -19 1 -12 6 -17 16 -13 9 3 12 1 7 -6 -3 -6 -1 -14 5 -18 8 -5 9 -3
4 6 -6 10 -4 12 8 7 9 -3 18 -3 20 1 2 4 2 1 0 -6 -2 -8 7 -22 19 -32 21 -17
24 -17 41 -2 12 11 14 18 6 23 -15 9 -4 39 15 39 19 0 12 -46 -10 -67 -8 -9
-14 -17 -12 -19 3 -2 47 -11 71 -13 5 -1 5 -6 1 -12 -4 -8 -1 -8 13 -1 15 9
20 8 20 -3 0 -8 -5 -11 -11 -8 -6 4 -3 -3 8 -15 10 -12 22 -19 27 -16 10 6 50
-32 42 -40 -3 -3 22 -3 55 -1 53 4 60 2 65 -15 3 -14 1 -18 -6 -13 -18 11 -38
12 -31 2 3 -5 10 -7 15 -4 5 4 9 1 9 -4 0 -6 7 -11 16 -11 8 0 13 -4 10 -9 -3
-5 2 -15 11 -22 10 -8 14 -9 10 -2 -4 6 -3 14 3 18 16 10 12 25 -5 19 -10 -4
-15 0 -14 12 0 12 3 14 6 6 4 -10 8 -10 18 -2 11 9 13 6 10 -19 -3 -23 1 -31
16 -36 14 -5 18 -12 14 -23 -3 -9 -3 -13 1 -9 4 4 14 1 23 -6 14 -10 14 -10 4
3 -10 13 -7 15 20 15 18 0 38 -4 45 -8 6 -5 12 -4 12 1 0 5 6 9 13 9 7 0 13
-12 12 -27 0 -15 -5 -27 -12 -27 -8 0 -9 6 -2 19 13 23 4 23 -20 -1 -19 -19
-19 -19 5 -25 13 -4 24 -12 24 -19 0 -8 4 -7 10 3 6 9 10 11 10 3 0 -7 7 -10
15 -7 11 4 13 2 9 -9 -3 -8 -1 -18 5 -22 7 -3 8 0 5 9 -8 21 16 29 47 16 24
-11 24 -11 1 -6 -13 3 -21 2 -18 -1 3 -4 1 -12 -4 -18 -7 -9 -3 -17 15 -29 15
-10 25 -12 25 -5 0 6 -9 13 -21 16 -15 4 -17 8 -8 14 18 11 39 -8 39 -34 0
-17 3 -18 12 -9 10 10 10 17 0 32 -17 27 -15 32 6 19 18 -11 25 -61 7 -52 -5
2 -1 -3 9 -11 11 -9 26 -16 34 -16 7 0 11 -4 8 -9 -3 -5 2 -15 11 -22 10 -8
14 -9 10 -2 -4 6 -3 15 3 18 6 4 8 15 5 26 -4 10 -2 19 3 19 5 0 8 -18 7 -39
-2 -32 1 -38 13 -33 11 4 13 2 7 -8 -6 -10 -4 -12 8 -7 10 4 16 2 14 -4 -1 -6
9 -13 23 -15 23 -3 23 -3 7 10 -16 13 -16 14 0 27 15 12 16 12 10 -4 -5 -13
-2 -17 10 -15 9 2 18 -4 20 -12 4 -13 3 -13 -6 0 -6 8 -11 10 -11 4 0 -6 7
-17 15 -24 8 -7 15 -9 15 -4 0 5 5 2 10 -6 5 -8 14 -16 20 -16 5 -1 15 -2 20
-3 6 0 10 -8 10 -16 0 -8 8 -15 18 -15 14 0 15 2 2 10 -11 7 -9 8 11 6 13 -1
31 -6 39 -11 10 -6 12 -4 7 9 -6 14 -3 17 9 12 8 -3 20 -6 25 -6 5 0 9 -9 9
-20 0 -16 5 -19 24 -14 16 4 25 1 29 -10 8 -19 31 -21 46 -3 8 10 7 17 -1 25
-9 9 -8 12 5 12 10 0 17 -7 16 -17 -1 -23 -17 -71 -18 -58 -1 6 -9 1 -18 -10
-14 -18 -15 -18 -9 -1 4 12 0 23 -11 32 -27 20 -53 17 -53 -7 0 -11 4 -18 9
-14 5 3 12 -4 16 -14 4 -12 12 -18 21 -14 8 3 14 -1 14 -8 1 -9 6 -7 15 5 17
23 20 14 5 -14 -8 -15 -7 -18 3 -14 8 3 20 -3 28 -12 12 -16 12 -17 -1 -10 -9
4 -8 1 2 -7 11 -8 35 -13 59 -12 48 3 68 18 51 38 -9 10 -8 17 1 27 10 10 9
12 -6 6 -10 -3 -26 -6 -35 -6 -13 0 -14 -2 -4 -9 11 -7 10 -10 -3 -15 -9 -3
-18 -6 -19 -6 -1 0 -2 9 -2 19 0 11 3 19 6 19 3 0 14 0 25 2 l20 1 -20 10
c-16 8 -14 8 11 5 29 -5 31 -3 26 20 -4 23 -6 24 -22 9 -12 -11 -20 -13 -25
-6 -3 6 -1 11 4 11 6 0 11 5 11 11 0 5 -5 7 -11 3 -8 -4 -9 1 -4 16 5 15 4 20
-4 16 -17 -11 -13 0 6 15 11 10 14 10 9 2 -4 -8 -2 -13 7 -13 9 0 12 9 9 31
-3 22 -7 27 -13 18 -12 -19 -11 -2 1 21 7 13 7 21 -2 26 -7 5 -8 3 -3 -6 5 -8
4 -11 -3 -6 -6 4 -9 13 -6 20 3 8 1 17 -5 20 -6 4 -8 13 -4 21 3 8 0 15 -6 15
-6 0 -14 -18 -17 -40 -4 -22 -11 -40 -16 -40 -5 0 -6 5 -3 10 3 6 2 10 -2 10
-13 0 -14 51 -2 66 6 8 14 12 18 10 4 -3 7 4 7 14 0 11 -2 17 -5 15 -2 -3 -13
2 -23 12 -10 9 -18 11 -18 6 0 -6 7 -16 15 -23 12 -10 13 -15 3 -21 -21 -13
-25 -2 -22 71 2 45 -1 68 -8 64 -6 -4 -9 15 -7 52 2 43 -1 59 -12 62 -11 3
-11 2 1 -8 12 -9 10 -10 -10 -5 -29 8 -61 35 -42 35 7 0 12 -4 12 -9 0 -5 8
-8 18 -7 25 4 28 36 3 43 -12 3 -21 12 -21 20 0 8 5 11 10 8 6 -3 10 -2 10 3
0 12 -25 33 -32 27 -2 -3 -5 1 -5 9 0 9 7 12 16 8 13 -4 13 -2 -2 15 -9 11
-14 23 -10 27 4 4 0 4 -10 1 -12 -5 -19 0 -27 20 -13 33 -13 38 0 30 6 -3 10
-1 10 4 0 14 -17 14 -25 1 -9 -15 4 -68 18 -73 7 -2 3 -3 -7 -1 -14 2 -16 0
-7 -9 14 -14 15 -37 1 -37 -12 0 -42 70 -36 84 2 6 5 3 5 -6 1 -10 6 -18 12
-18 6 0 8 7 5 16 -3 9 -6 22 -6 30 0 9 -4 12 -10 9 -5 -3 -10 -1 -10 5 0 7 7
10 14 7 9 -4 17 2 21 14 4 10 11 17 16 14 10 -7 12 8 3 18 -4 4 -15 -2 -24
-13 -18 -20 -18 -20 -23 0 -3 11 -2 18 2 16 3 -2 15 2 25 9 16 12 17 18 7 46
-6 17 -8 36 -4 42 4 6 1 7 -7 2 -10 -6 -12 -1 -8 19 3 14 1 29 -4 32 -5 3 -7
12 -4 20 3 8 1 14 -5 14 -6 0 -7 5 -4 10 4 6 1 9 -7 8 -8 -2 -13 6 -13 21 0
14 -7 27 -15 29 -18 6 -54 42 -42 42 4 0 13 -5 20 -12 8 -8 12 -8 12 -1 0 13
-25 35 -32 28 -2 -3 -5 1 -5 9 0 8 6 12 15 9 12 -5 12 -2 3 14 -6 11 -17 23
-26 27 -17 6 -19 76 -2 76 5 0 4 7 -3 15 -6 8 -8 20 -4 26 5 8 3 9 -6 4 -10
-6 -12 -4 -7 9 4 10 3 15 -3 11 -6 -3 -10 -16 -10 -29 0 -20 -16 -46 -30 -46
-3 0 -6 12 -6 28 -1 15 1 21 3 15 7 -20 23 -15 23 7 0 14 -5 18 -17 13 -11 -4
-14 -3 -9 6 5 7 15 10 23 7 12 -5 14 -1 8 21 -6 27 -6 27 9 8 8 -11 16 -16 16
-12 0 5 -9 20 -20 34 -22 28 -27 48 -8 37 7 -4 8 -3 4 5 -4 6 -11 9 -16 6 -14
-9 -21 27 -8 43 9 11 9 14 1 9 -14 -9 -35 25 -31 50 2 10 -4 19 -14 21 -10 2
-18 -1 -18 -7 0 -6 8 -8 18 -5 13 5 14 4 3 -4 -10 -7 -10 -14 -3 -29 10 -18 8
-20 -16 -17 -38 3 -39 3 -19 15 9 5 17 15 17 20 0 6 -5 7 -12 3 -7 -4 -8 -3
-4 4 4 7 1 12 -6 13 -7 0 -2 5 12 11 14 6 29 10 34 9 5 -1 4 4 -2 12 -7 8 -11
16 -9 18 1 2 -4 -4 -12 -13 -7 -10 -18 -18 -23 -18 -5 0 -2 7 7 16 9 9 14 23
11 31 -3 8 -6 19 -6 24 0 6 -4 8 -8 5 -4 -2 -9 5 -9 17 -2 18 1 17 17 -8 19
-28 20 -28 20 -7 0 12 -5 22 -11 22 -6 0 -8 8 -4 19 3 11 1 22 -5 26 -6 3 -8
10 -5 15 3 5 1 11 -5 15 -6 4 -7 11 -4 17 5 7 2 9 -8 5 -18 -6 -38 10 -38 32
1 13 2 13 11 -1 5 -10 14 -18 20 -18 5 0 3 10 -6 23 -8 13 -12 27 -8 32 5 4
-2 1 -14 -6 -13 -8 -23 -21 -23 -30 0 -18 30 -49 48 -49 6 0 13 -4 16 -9 4 -5
-3 -7 -13 -4 -14 3 -19 0 -18 -13 1 -9 -4 -19 -11 -21 -7 -3 -10 1 -6 10 3 9
-3 16 -15 20 -12 3 -21 11 -20 19 0 10 2 10 6 1 2 -7 14 -13 26 -13 21 1 20 2
-4 17 -26 16 -36 63 -14 63 7 0 7 3 0 8 -12 9 -16 64 -4 56 5 -3 9 0 9 5 0 6
-6 11 -12 11 -9 0 -8 4 2 10 10 6 11 10 3 10 -7 0 -13 7 -13 16 0 9 5 13 13 9
6 -4 4 0 -5 8 -11 9 -18 28 -18 50 0 48 -10 73 -21 55 -7 -10 -9 -9 -9 5 0 9
8 17 18 18 13 0 12 3 -5 11 -27 13 -30 28 -5 29 10 0 12 3 4 6 -6 2 -9 10 -6
15 4 6 2 8 -4 4 -5 -3 -13 0 -16 6 -4 9 -5 8 -5 -2 3 -37 -2 -70 -8 -70 -5 0
-8 18 -8 40 0 22 3 40 7 40 4 0 3 12 -2 26 -7 16 -7 23 0 19 6 -3 10 -13 10
-21 0 -8 5 -14 10 -14 7 0 7 6 0 20 -6 11 -8 20 -5 20 3 0 -6 12 -20 27 -14
15 -25 35 -25 43 0 8 -4 21 -9 29 -8 12 -11 12 -25 -1 -8 -9 -12 -18 -9 -22 4
-3 1 -6 -5 -6 -15 0 -16 27 -2 35 8 5 7 11 -1 21 -9 12 -9 13 2 9 10 -4 15 1
15 14 0 11 -3 18 -7 16 -8 -6 -30 66 -23 77 3 4 -4 8 -15 8 -22 0 -30 20 -8
21 6 0 1 5 -12 10 -21 8 -22 11 -9 32 15 23 14 47 -3 47 -5 0 -9 -9 -9 -19 0
-26 -16 -35 -24 -15 -9 23 -7 36 3 29 15 -9 25 36 11 49 -10 8 -11 8 -6 -4 4
-8 0 -6 -8 4 -16 19 -16 19 -16 1 0 -12 -3 -16 -10 -9 -6 6 -4 24 5 50 10 29
11 50 5 70 l-10 29 3 -32 c4 -38 -8 -44 -17 -10 -8 32 -8 34 12 53 16 17 16
18 0 11 -12 -4 -18 -2 -18 9 0 9 5 12 12 8 8 -5 9 -2 5 10 -4 10 -7 23 -7 29
0 7 -4 6 -10 -3 -8 -12 -10 -12 -11 5 -1 17 -2 16 -9 -5 -11 -35 -12 -2 -1 38
5 17 6 32 1 32 -4 0 -11 11 -14 25 -4 14 -12 25 -19 25 -17 0 -39 37 -27 45 6
3 10 -1 10 -9 0 -9 5 -16 10 -16 7 0 7 6 2 18 -5 9 -7 24 -5 32 4 13 3 13 -6
0 -9 -12 -11 -10 -11 11 0 14 -7 34 -15 45 -8 10 -14 30 -13 44 0 23 1 23 8
-5 6 -25 8 -26 9 -7 0 12 -5 38 -13 56 -7 18 -17 52 -21 75 -9 52 -30 97 -40
82 -14 -24 -23 2 -19 57 3 41 2 53 -6 42 -7 -11 -10 -1 -10 40 0 38 -3 50 -10
40 -5 -8 -12 -11 -16 -7 -4 3 -1 13 5 21 10 11 8 26 -9 68 -12 29 -26 64 -31
77 -8 19 -12 21 -25 10 -13 -11 -14 -9 -9 14 4 16 3 27 -3 27 -5 0 -13 -11
-16 -25 -4 -14 -11 -25 -17 -25 -6 0 -7 -5 -4 -10 3 -6 3 -20 -1 -32 -6 -19
-7 -20 -16 -4 -7 12 -2 29 17 62 27 46 27 46 9 80 -10 18 -20 32 -22 30 -2 -2
3 -17 11 -33 13 -25 13 -31 0 -48 -15 -19 -15 -19 -9 -1 4 11 -1 41 -10 69
-15 45 -18 49 -44 45 -21 -3 -27 -1 -23 10 3 8 14 11 25 9 16 -5 17 -3 7 9 -7
8 -19 12 -27 9 -11 -4 -13 1 -8 20 4 14 3 24 -1 23 -5 0 -16 2 -26 7 -13 5
-15 11 -7 20 8 10 8 15 -1 20 -6 4 -15 2 -19 -5 -11 -17 -22 3 -14 27 5 15 4
15 -5 3 -9 -13 -11 -12 -16 1 -3 9 -12 16 -20 16 -8 0 -12 -4 -9 -9z m-130
-45 c-10 -10 -19 5 -10 18 6 11 8 11 12 0 2 -7 1 -15 -2 -18z m-26 -3 c0 -5
-4 -10 -10 -10 -5 0 -10 5 -10 10 0 6 5 10 10 10 6 0 10 -4 10 -10z m-52 -26
c13 8 42 -3 42 -15 0 -12 -24 -11 -54 2 -14 7 -23 16 -19 22 3 5 9 4 13 -3 4
-7 12 -10 18 -6z m82 6 c0 -5 -5 -10 -11 -10 -5 0 -7 5 -4 10 3 6 8 10 11 10
2 0 4 -4 4 -10z m185 -19 c-6 -5 -25 10 -25 20 0 5 6 4 14 -3 8 -7 12 -15 11
-17z m-315 -25 c0 -8 -7 -16 -15 -20 -9 -3 -15 0 -15 9 0 7 -10 16 -22 18 -14
3 -9 5 15 6 26 1 37 -3 37 -13z m127 8 c-3 -3 -12 -4 -19 -1 -8 3 -5 6 6 6 11
1 17 -2 13 -5z m193 2 c0 -2 -7 -9 -15 -16 -12 -10 -15 -10 -15 4 0 9 7 16 15
16 8 0 15 -2 15 -4z m-360 -31 c0 -8 -4 -15 -10 -15 -5 0 -10 7 -10 15 0 8 5
15 10 15 6 0 10 -7 10 -15z m-410 -15 c0 -5 -12 -10 -27 -9 l-28 1 25 8 c14 4
26 8 28 9 1 1 2 -3 2 -9z m573 -7 c3 -5 -23 -9 -57 -9 -43 -1 -54 0 -36 6 33
11 88 12 93 3z m-714 -77 c-11 -9 -59 -15 -59 -7 0 5 12 11 28 13 27 3 39 1
31 -6z m-201 -3 c-10 -2 -26 -2 -35 0 -10 3 -2 5 17 5 19 0 27 -2 18 -5z
m-120 -10 c-10 -2 -26 -2 -35 0 -10 3 -2 5 17 5 19 0 27 -2 18 -5z m147 -13
c-6 -10 -65 -10 -65 0 0 6 15 10 34 8 19 -1 33 -5 31 -8z m-125 -20 c0 -5 -4
-10 -10 -10 -5 0 -10 5 -10 10 0 6 5 10 10 10 6 0 10 -4 10 -10z m50 0 c0 -5
-9 -10 -20 -10 -11 0 -20 5 -20 10 0 6 9 10 20 10 11 0 20 -4 20 -10z m-398
-24 c10 -7 15 -16 12 -19 -9 -8 -44 11 -44 23 0 13 12 12 32 -4z m-132 -11
c-7 -8 -17 -12 -23 -8 -6 4 -3 9 9 14 27 11 28 11 14 -6z m583 -12 c-7 -2 -19
-2 -25 0 -7 3 -2 5 12 5 14 0 19 -2 13 -5z m1322 -40 c-4 -29 -3 -33 4 -18 9
18 10 17 8 -7 -1 -15 -5 -24 -11 -21 -5 4 -6 -5 -2 -21 6 -25 5 -25 -12 -10
-21 18 -23 75 -3 82 6 2 11 10 11 18 0 8 2 14 5 14 3 0 3 -17 0 -37z m-2239
-13 c8 0 14 -8 13 -17 0 -11 -3 -13 -6 -5 -8 21 -21 13 -16 -10 5 -22 5 -22
-9 -5 -9 12 -20 16 -33 11 -18 -7 -18 -8 1 -15 17 -7 17 -8 -3 -8 -26 -1 -31
17 -7 26 13 5 13 7 2 15 -8 5 -2 7 17 3 17 -3 24 -2 17 1 -6 3 -9 11 -5 17 5
8 8 8 11 -1 2 -7 10 -12 18 -12z m71 4 c-3 -3 -12 -4 -19 -1 -8 3 -5 6 6 6 11
1 17 -2 13 -5z m-152 -14 c3 -5 1 -10 -4 -10 -6 0 -11 5 -11 10 0 6 2 10 4 10
3 0 8 -4 11 -10z m125 -4 c0 -3 -4 -8 -10 -11 -5 -3 -10 -1 -10 4 0 6 5 11 10
11 6 0 10 -2 10 -4z m30 -17 c0 -6 -4 -7 -10 -4 -5 3 -10 11 -10 16 0 6 5 7
10 4 6 -3 10 -11 10 -16z m2197 -31 c-3 -8 -6 -5 -6 6 -1 11 2 17 5 13 3 -3 4
-12 1 -19z m-2477 4 c0 -4 25 -7 55 -5 30 1 55 -2 55 -6 0 -13 -36 -20 -51
-10 -7 4 -26 5 -41 2 -20 -4 -28 -1 -28 8 0 11 -2 11 -10 -1 -5 -8 -10 -10
-10 -4 0 6 3 14 7 17 9 9 23 9 23 -1z m2400 -37 c0 -14 -4 -25 -10 -25 -11 0
-14 33 -3 43 11 11 13 8 13 -18z m-2120 -5 c0 -5 -16 -10 -36 -10 -21 0 -33 4
-29 10 3 6 19 10 36 10 16 0 29 -4 29 -10z m2190 0 c0 -5 -5 -10 -11 -10 -5 0
-7 5 -4 10 3 6 8 10 11 10 2 0 4 -4 4 -10z m-2847 -7 c-7 -2 -19 -2 -25 0 -7
3 -2 5 12 5 14 0 19 -2 13 -5z m-68 -72 c-3 -6 -14 -11 -23 -11 -13 0 -13 2 4
14 21 15 30 14 19 -3z m-101 1 c3 -5 -8 -9 -24 -9 -16 0 -27 4 -24 9 3 4 14 8
24 8 10 0 21 -4 24 -8z m-54 -23 c10 -5 -2 -8 -32 -9 -45 0 -57 7 -42 23 8 7
51 -1 74 -14z m-90 -23 c0 -9 -11 -13 -30 -12 -16 0 -30 4 -30 8 0 6 10 9 53
17 4 0 7 -5 7 -13z m165 4 c3 -5 -1 -10 -9 -10 -9 0 -16 5 -16 10 0 6 4 10 9
10 6 0 13 -4 16 -10z m-469 -20 c8 0 14 -8 13 -17 0 -11 -3 -13 -6 -5 -2 6 -9
12 -14 12 -6 0 -8 -4 -5 -8 3 -5 -8 -9 -25 -9 -21 0 -26 3 -17 9 9 6 3 8 -14
4 -17 -4 -28 -2 -28 4 0 6 3 9 8 7 4 -3 21 1 37 7 17 7 32 9 33 4 2 -4 10 -8
18 -8z m197 3 c-7 -2 -19 -2 -25 0 -7 3 -2 5 12 5 14 0 19 -2 13 -5z m-153
-17 c0 -3 -4 -8 -10 -11 -5 -3 -10 -1 -10 4 0 6 5 11 10 11 6 0 10 -2 10 -4z
m25 -6 c3 -5 1 -10 -4 -10 -6 0 -11 5 -11 10 0 6 2 10 4 10 3 0 8 -4 11 -10z
m3489 -56 c4 -10 1 -14 -6 -12 -15 5 -23 28 -10 28 5 0 13 -7 16 -16z m-4 -49
c0 -8 -6 -24 -12 -35 -10 -16 -10 -22 5 -32 14 -10 16 -19 10 -36 -8 -21 -10
-20 -27 18 -15 35 -16 44 -4 70 14 32 28 40 28 15z m-4052 -11 c24 -7 1 -25
-26 -20 -15 2 -28 5 -29 6 -6 5 -24 8 -58 9 -19 0 -35 6 -35 11 0 9 115 5 148
-6z m162 -4 c0 -5 -5 -10 -11 -10 -5 0 -7 5 -4 10 3 6 8 10 11 10 2 0 4 -4 4
-10z m3945 -160 c3 -5 1 -10 -4 -10 -6 0 -11 5 -11 10 0 6 2 10 4 10 3 0 8 -4
11 -10z m-39 -71 c1 -5 3 -11 4 -14 3 -5 6 -19 9 -32 1 -5 6 -1 11 7 8 12 10
12 10 1 0 -8 -8 -20 -17 -28 -10 -8 -12 -11 -4 -7 10 5 12 3 7 -5 -6 -8 -12
-9 -20 -2 -7 6 -15 9 -18 6 -4 -5 -4 36 1 84 1 15 15 7 17 -10z m-3905 -32
c-1 -12 -15 -9 -19 4 -3 6 1 10 8 8 6 -3 11 -8 11 -12z m3989 -86 c0 -5 -9
-11 -20 -14 -13 -3 -20 0 -20 9 0 8 9 14 20 14 11 0 20 -4 20 -9z m-3665 -31
c3 -5 1 -10 -4 -10 -6 0 -11 5 -11 10 0 6 2 10 4 10 3 0 8 -4 11 -10z m-130
-20 c-4 -6 7 -10 25 -10 33 0 63 -21 52 -36 -10 -13 -35 -17 -27 -4 3 6 -5 11
-19 11 -47 3 -51 4 -50 17 2 27 4 32 15 32 5 0 7 -4 4 -10z m3845 -62 c0 -5
-4 -8 -10 -8 -5 0 -10 10 -10 23 0 18 2 19 10 7 5 -8 10 -18 10 -22z m-3846
-3 c11 -5 21 -3 27 6 5 8 9 10 9 4 0 -31 -43 -44 -68 -22 -10 8 -24 17 -32 20
-8 4 -1 5 15 3 17 -2 38 -7 49 -11z m120 -21 c3 -8 2 -12 -4 -9 -6 3 -10 10
-10 16 0 14 7 11 14 -7z m3720 -44 c-6 -5 -24 21 -24 34 0 6 6 1 14 -10 8 -10
12 -21 10 -24z m-3594 -13 c0 -6 -3 -7 -7 -4 -3 4 -11 3 -17 -2 -7 -6 -18 -4
-29 4 -16 12 -14 13 17 13 20 0 36 -5 36 -11z m53 -14 c4 -3 -7 -15 -24 -25
-16 -10 -27 -23 -24 -28 3 -6 3 -10 -2 -11 -4 0 -16 -2 -25 -4 -21 -4 -14 20
15 53 20 21 47 29 60 15z m3528 -90 c-12 -20 -14 -14 -5 12 4 9 9 14 11 11 3
-2 0 -13 -6 -23z m48 -62 c6 -10 7 -22 3 -26 -4 -5 1 -5 11 -2 15 6 17 3 12
-13 -5 -16 -3 -19 12 -14 17 5 17 5 1 -6 -9 -6 -16 -16 -14 -23 1 -6 1 -9 -1
-4 -3 4 -9 5 -14 1 -5 -3 -9 0 -9 6 0 6 -4 9 -8 6 -8 -5 -12 8 -13 47 0 9 -4
17 -9 17 -5 0 -7 7 -4 15 8 20 21 19 33 -4z m-3259 -21 c0 -5 -5 -10 -11 -10
-5 0 -7 5 -4 10 3 6 8 10 11 10 2 0 4 -4 4 -10z m3321 -103 c-1 -12 -15 -9
-19 4 -3 6 1 10 8 8 6 -3 11 -8 11 -12z m-101 -7 c0 -5 -4 -10 -10 -10 -5 0
-10 5 -10 10 0 6 5 10 10 10 6 0 10 -4 10 -10z m-3082 -41 c12 -8 17 -20 14
-34 -4 -23 15 -44 27 -29 3 5 14 10 25 12 18 3 16 -5 -6 -35 -11 -14 -58 22
-58 46 0 18 -29 51 -46 51 -7 0 -16 4 -19 10 -7 11 32 -2 63 -21z m17 20 c11
-17 2 -18 -19 -3 -17 12 -17 14 -4 14 9 0 20 -5 23 -11z m79 -36 c6 -15 8 -15
16 -3 15 24 11 6 -6 -29 -9 -17 -13 -38 -10 -46 3 -9 0 -12 -9 -8 -12 4 -12 9
-4 26 10 17 8 23 -11 37 -18 13 -20 19 -9 24 8 3 4 3 -8 0 -13 -3 -23 -1 -23
5 0 19 57 13 64 -6z m147 -129 c32 -16 33 -18 19 -44 -15 -27 -38 -15 -33 18
3 26 3 26 -6 5 -12 -26 -27 -32 -17 -7 4 11 1 14 -13 9 -11 -3 -24 1 -32 11
-13 16 -12 16 11 4 22 -12 23 -11 13 1 -10 12 -8 15 9 16 12 1 34 -5 49 -13z
m3049 -33 c0 -6 -4 -13 -10 -16 -5 -3 -10 1 -10 9 0 9 5 16 10 16 6 0 10 -4
10 -9z m-2875 -42 c11 -17 2 -18 -19 -3 -17 12 -17 14 -4 14 9 0 20 -5 23 -11z
m2851 -36 c-1 -21 -5 -38 -11 -38 -12 0 -19 40 -11 61 10 27 23 14 22 -23z
m59 -23 c3 -5 -1 -10 -10 -10 -9 0 -13 5 -10 10 3 6 8 10 10 10 2 0 7 -4 10
-10z m-2861 -33 c-3 -7 0 -5 8 3 16 19 44 24 53 10 4 -6 3 -10 -2 -9 -4 1 -16
1 -27 0 -15 -1 -16 -4 -7 -15 8 -10 9 -16 2 -21 -16 -10 -36 7 -37 32 -1 13 3
20 7 17 5 -3 7 -11 3 -17z m188 11 c-9 -9 -15 -9 -24 0 -9 9 -7 12 12 12 19 0
21 -3 12 -12z m-72 -28 c0 -5 -2 -10 -4 -10 -3 0 -8 5 -11 10 -3 6 -1 10 4 10
6 0 11 -4 11 -10z m63 -52 c-2 -5 1 -8 6 -8 12 0 15 -42 5 -53 -14 -13 -31 6
-27 31 3 26 3 26 -7 4 l-10 -23 -30 21 c-33 24 -39 33 -13 23 9 -4 14 -2 10 3
-3 6 10 10 33 10 21 -1 36 -4 33 -8z m175 -78 c-2 -25 4 -32 27 -28 14 3 30
-1 36 -8 8 -10 4 -12 -25 -7 -20 3 -36 2 -36 -3 0 -5 -12 -10 -28 -10 -15 -1
-21 1 -14 3 6 3 12 9 12 15 0 6 -8 7 -17 4 -15 -6 -15 -5 1 13 17 18 16 19 -8
17 -15 0 -24 -6 -22 -12 2 -6 -2 -11 -10 -11 -8 0 -14 6 -14 13 0 7 -6 14 -12
17 -7 2 15 4 49 3 34 0 61 -3 61 -6z m152 0 c0 -5 -4 -10 -10 -10 -5 0 -10 5
-10 10 0 6 5 10 10 10 6 0 10 -4 10 -10z m-120 -74 c0 -2 -7 -7 -16 -10 -8 -3
-12 -2 -9 4 6 10 25 14 25 6z m135 -105 c-6 -5 -25 10 -25 20 0 5 6 4 14 -3 8
-7 12 -15 11 -17z m44 13 c-9 -11 -15 -11 -25 -3 -18 15 -18 14 11 15 21 2 24
-1 14 -12z m121 8 c0 -4 -9 -8 -20 -9 -11 -1 -20 2 -20 8 0 5 9 9 20 9 11 0
20 -4 20 -8z m-100 -32 c0 -5 -2 -10 -4 -10 -3 0 -8 5 -11 10 -3 6 -1 10 4 10
6 0 11 -4 11 -10z m2395 -110 c-3 -5 -10 -10 -16 -10 -5 0 -9 5 -9 10 0 6 7
10 16 10 8 0 12 -4 9 -10z m-2110 -20 c4 -6 -6 -10 -24 -10 -39 0 -48 15 -11
18 16 1 31 -2 35 -8z m68 -46 c-23 -17 -33 -17 -33 0 0 8 10 14 25 14 23 0 24
-2 8 -14z m57 -60 c0 -3 -4 -3 -9 0 -5 4 -11 1 -13 -6 -3 -7 -7 -3 -10 10 -5
19 -4 20 13 11 10 -5 19 -12 19 -15z m-46 8 c3 -5 -1 -9 -9 -9 -8 0 -15 4 -15
9 0 4 4 8 9 8 6 0 12 -4 15 -8z m2140 -92 c-5 -5 -10 4 -11 23 -1 30 -1 31 9
9 7 -14 8 -26 2 -32z m-1784 25 c7 -9 8 -15 2 -15 -5 0 -12 7 -16 15 -3 8 -4
15 -2 15 2 0 9 -7 16 -15z m-94 -82 c-3 -7 -1 -15 4 -18 6 -4 10 -1 10 6 0 7
2 10 5 7 8 -7 -5 -38 -16 -38 -5 0 -8 3 -7 8 4 19 -15 40 -33 37 -11 -2 -17
-1 -15 4 8 13 57 8 52 -6z m94 -8 c7 -9 10 -18 7 -21 -9 -9 -48 16 -42 27 9
13 21 11 35 -6z m15 -65 c3 -5 1 -10 -4 -10 -6 0 -11 5 -11 10 0 6 2 10 4 10
3 0 8 -4 11 -10z m39 3 c4 -5 12 -9 17 -9 5 -1 11 -2 14 -3 3 0 1 -10 -5 -22
-11 -19 -13 -19 -29 -5 -10 9 -18 23 -18 31 0 16 9 19 21 8z m63 1 c-3 -3 -12
-4 -19 -1 -8 3 -5 6 6 6 11 1 17 -2 13 -5z m1660 -16 c-3 -8 -6 -5 -6 6 -1 11
2 17 5 13 3 -3 4 -12 1 -19z m47 -46 c8 -13 -5 -52 -15 -46 -12 7 -12 54 0 54
6 0 12 -4 15 -8z m-39 -82 c3 -5 1 -10 -4 -10 -6 0 -11 5 -11 10 0 6 2 10 4
10 3 0 8 -4 11 -10z m115 -33 c12 4 12 3 1 -5 -10 -7 -10 -14 -3 -29 10 -18 8
-20 -16 -17 -38 3 -39 3 -19 15 9 5 17 15 17 20 0 6 -5 7 -12 3 -7 -4 -8 -3
-4 4 4 7 2 12 -3 12 -6 0 -11 7 -11 17 0 14 3 13 18 -4 9 -11 24 -18 32 -16z
m-1593 4 c-1 -9 3 -15 10 -14 7 2 10 -4 7 -12 -6 -15 -25 -22 -22 -7 4 19 -15
40 -33 37 -11 -2 -17 -1 -15 4 3 4 16 7 30 7 18 0 25 -5 23 -15z m1648 -190
c-3 -2 -6 2 -6 10 -1 8 -5 -2 -9 -21 -6 -29 -8 -24 -8 30 l-1 65 14 -40 c8
-21 12 -41 10 -44z m-1361 37 c-3 -4 0 -8 5 -8 6 0 11 5 11 10 0 7 5 6 13 -2
10 -9 11 -15 3 -24 -8 -9 -13 -9 -18 0 -6 8 -8 7 -8 -2 0 -7 -5 -10 -10 -7 -6
4 -8 10 -5 15 3 5 -3 13 -12 19 -16 9 -16 10 4 8 12 0 19 -5 17 -9z m122 -23
c-8 -8 -25 -15 -38 -15 -21 1 -20 2 7 15 40 18 50 18 31 0z m-78 -25 c-7 -10
-14 -17 -17 -15 -4 4 18 35 25 35 2 0 -1 -9 -8 -20z m62 -30 c-18 -12 -30 -13
-30 -2 0 4 10 9 22 9 18 2 20 0 8 -7z m106 -19 c-4 -6 -14 -7 -23 -4 -15 6
-14 7 3 13 22 9 29 6 20 -9z m304 -61 c0 -5 -7 -10 -16 -10 -8 0 -12 5 -9 10
3 6 10 10 16 10 5 0 9 -4 9 -10z m-33 -33 c6 -9 -25 -47 -39 -47 -5 0 -7 4 -4
9 3 4 -6 13 -19 19 -14 7 -25 16 -25 22 0 13 79 10 87 -3z m-147 -47 c0 -5 -2
-10 -4 -10 -3 0 -8 5 -11 10 -3 6 -1 10 4 10 6 0 11 -4 11 -10z m120 -26 c0
-3 -4 -3 -9 0 -5 4 -11 1 -13 -6 -3 -7 -7 -3 -10 10 -5 19 -4 20 13 11 10 -5
19 -12 19 -15z m-46 8 c3 -5 -1 -9 -9 -9 -8 0 -15 4 -15 9 0 4 4 8 9 8 6 0 12
-4 15 -8z m1020 -37 c-4 -8 -10 -15 -15 -15 -4 0 -11 -15 -14 -33 -4 -19 -13
-34 -20 -34 -10 0 -14 11 -13 34 1 18 5 33 10 33 5 0 16 7 24 15 9 8 19 15 24
15 5 0 7 -7 4 -15z m-894 -27 c0 -5 -4 -6 -10 -3 -5 3 -10 1 -10 -4 0 -16 16
-13 30 4 7 8 27 15 44 14 l31 0 -25 -12 c-14 -6 -27 -14 -30 -17 -18 -23 -45
-18 -67 10 -9 12 -7 15 13 16 13 1 24 -2 24 -8z m160 -22 c0 -19 -27 -28 -33
-11 -7 15 1 25 20 25 7 0 13 -6 13 -14z m770 4 c0 -5 -4 -10 -10 -10 -5 0 -10
5 -10 10 0 6 5 10 10 10 6 0 10 -4 10 -10z m-20 -114 c-7 -7 -13 -7 -20 0 -6
6 -3 10 10 10 13 0 16 -4 10 -10z m-435 -107 c11 -16 1 -19 -13 -3 -7 8 -8 14
-3 14 5 0 13 -5 16 -11z m59 -84 c3 -8 1 -15 -4 -15 -6 0 -10 7 -10 15 0 8 2
15 4 15 2 0 6 -7 10 -15z m166 -30 c10 -12 10 -15 -4 -15 -9 0 -16 7 -16 15 0
8 2 15 4 15 2 0 9 -7 16 -15z m5 -45 c-3 -5 -2 -10 4 -10 11 0 9 -26 -4 -37
-4 -4 -5 -2 -1 5 4 6 2 12 -4 12 -6 0 -8 5 -5 10 3 6 1 10 -5 10 -6 0 -8 5 -5
10 3 6 11 10 16 10 6 0 7 -4 4 -10z m95 -35 c0 -7 -6 -15 -13 -18 -10 -4 -13
2 -9 19 4 24 22 24 22 -1z m120 -125 c0 -5 -2 -10 -4 -10 -3 0 -8 5 -11 10 -3
6 -1 10 4 10 6 0 11 -4 11 -10z m165 -70 c3 -5 2 -10 -4 -10 -5 0 -13 5 -16
10 -3 6 -2 10 4 10 5 0 13 -4 16 -10z m-25 -16 c0 -2 -7 -4 -15 -4 -8 0 -15 4
-15 10 0 5 7 7 15 4 8 -4 15 -8 15 -10z"/>
<path d="M1728 4023 c7 -3 16 -2 19 1 4 3 -2 6 -13 5 -11 0 -14 -3 -6 -6z"/>
<path d="M1597 3419 c7 -7 15 -10 18 -7 3 3 -2 9 -12 12 -14 6 -15 5 -6 -5z"/>
<path d="M2622 2830 c0 -14 2 -19 5 -12 2 6 2 18 0 25 -3 6 -5 1 -5 -13z"/>
<path d="M2965 2621 c-6 -11 13 -26 22 -17 4 3 0 6 -8 6 -11 0 -11 2 1 10 9 6
10 10 3 10 -6 0 -14 -4 -18 -9z"/>
<path d="M3022 2590 c0 -14 2 -19 5 -12 2 6 2 18 0 25 -3 6 -5 1 -5 -13z"/>
<path d="M3170 2531 c0 -5 7 -11 14 -14 10 -4 13 -1 9 9 -6 15 -23 19 -23 5z"/>
<path d="M4190 1896 c0 -2 6 -9 14 -15 10 -9 15 -8 19 2 3 8 -3 13 -14 14 -10
1 -19 0 -19 -1z"/>
<path d="M5060 4645 c0 -8 4 -15 10 -15 5 0 7 7 4 15 -4 8 -8 15 -10 15 -2 0
-4 -7 -4 -15z"/>
<path d="M5126 4553 c6 -4 14 -15 17 -23 5 -11 6 -9 4 4 -1 11 -9 21 -17 23
-10 3 -11 2 -4 -4z"/>
<path d="M4285 4531 c-47 -4 -45 -5 40 -16 86 -11 145 -4 145 17 0 7 -89 7
-185 -1z m142 -7 c-3 -3 -12 -4 -19 -1 -8 3 -5 6 6 6 11 1 17 -2 13 -5z"/>
<path d="M3949 4449 c-11 -7 -11 -9 3 -9 9 0 23 -3 32 -6 9 -3 16 -2 16 4 0
14 -35 21 -51 11z"/>
<path d="M2425 4190 c-19 -8 -19 -9 2 -9 12 -1 25 4 28 9 7 12 -2 12 -30 0z"/>
<path d="M5290 4026 c0 -9 5 -16 10 -16 6 0 10 4 10 9 0 6 -4 13 -10 16 -5 3
-10 -1 -10 -9z"/>
<path d="M1487 3993 c-4 -3 -7 -11 -7 -17 0 -6 5 -5 12 2 6 6 9 14 7 17 -3 3
-9 2 -12 -2z"/>
<path d="M1385 3950 c-3 -5 -2 -10 4 -10 5 0 18 -3 28 -7 17 -6 17 -6 1 10
-19 20 -24 21 -33 7z"/>
<path d="M1002 3898 c4 -10 1 -19 -8 -22 -22 -8 -26 -7 -19 3 10 18 -13 21
-26 4 -8 -9 -9 -14 -3 -10 7 4 15 0 18 -9 4 -11 2 -15 -8 -11 -11 4 -13 1 -9
-10 5 -11 3 -14 -6 -8 -11 6 -11 3 -1 -16 18 -34 24 -38 17 -11 -4 17 1 27 21
40 46 29 51 36 34 52 -14 13 -15 12 -10 -2z"/>
<path d="M1205 3660 c-3 -6 1 -7 9 -4 18 7 21 14 7 14 -6 0 -13 -4 -16 -10z"/>
<path d="M1698 3343 c7 -3 16 -2 19 1 4 3 -2 6 -13 5 -11 0 -14 -3 -6 -6z"/>
<path d="M1770 3295 c7 -9 15 -13 17 -11 7 7 -7 26 -19 26 -6 0 -6 -6 2 -15z"/>
<path d="M5560 3180 c0 -5 5 -10 10 -10 6 0 10 5 10 10 0 6 -4 10 -10 10 -5 0
-10 -4 -10 -10z"/>
<path d="M2132 3118 c-7 -7 -12 -17 -12 -22 0 -6 5 -3 11 7 6 9 14 15 20 12 5
-4 9 -1 9 4 0 14 -13 14 -28 -1z"/>
<path d="M2140 3092 c0 -7 8 -16 18 -19 9 -4 22 -13 27 -20 11 -15 45 -8 45 9
0 6 -7 5 -15 -2 -9 -7 -18 -10 -22 -6 -3 3 -1 6 5 6 7 0 12 5 12 11 0 6 -7 8
-17 5 -16 -6 -16 -6 0 12 17 18 16 19 -18 18 -21 -1 -35 -6 -35 -14z"/>
<path d="M2280 3008 c0 -6 3 -9 6 -5 3 3 18 -5 32 -18 14 -13 28 -22 31 -19 6
5 -49 53 -61 54 -5 0 -8 -5 -8 -12z"/>
<path d="M2780 2706 c0 -10 4 -15 9 -12 5 4 12 0 14 -6 4 -8 6 -9 6 -2 1 6 -6
17 -14 24 -12 10 -15 9 -15 -4z"/>
<path d="M5789 2531 c11 -7 11 -9 0 -13 -8 -3 -10 -9 -6 -14 9 -10 28 16 21
28 -3 4 -11 8 -17 8 -8 0 -7 -3 2 -9z"/>
<path d="M3494 2298 c3 -9 0 -19 -7 -22 -7 -2 3 -3 21 -1 31 2 81 35 55 35 -6
0 -19 -7 -28 -16 -15 -15 -17 -15 -31 2 -13 16 -15 16 -10 2z"/>
<path d="M3547 2273 c-12 -11 -8 -22 14 -34 13 -6 19 -7 15 -1 -3 6 -3 12 1
15 5 2 3 2 -4 1 -7 -2 -10 3 -6 12 5 14 -8 19 -20 7z"/>
<path d="M4266 1822 c-7 -11 6 -17 28 -13 5 1 12 -2 15 -6 3 -5 20 -19 38 -31
l32 -23 7 26 c3 14 4 29 0 32 -3 4 -6 -3 -6 -15 0 -12 -4 -22 -9 -22 -4 0 -7
12 -4 28 3 25 3 26 -6 5 -12 -26 -26 -32 -17 -7 4 12 2 15 -9 10 -8 -3 -14 -2
-14 2 3 18 -3 22 -20 12 -14 -7 -21 -6 -23 2 -3 9 -6 9 -12 0z"/>
<path d="M4562 1653 c12 -12 24 -23 26 -23 3 0 2 3 -1 7 -4 3 -2 12 4 20 9 9
8 13 0 13 -6 0 -11 -5 -11 -11 0 -5 -5 -7 -10 -4 -6 4 -8 10 -6 14 3 4 -2 8
-10 8 -11 0 -9 -6 8 -24z"/>
<path d="M6140 1410 c0 -5 5 -10 11 -10 5 0 7 5 4 10 -3 6 -8 10 -11 10 -2 0
-4 -4 -4 -10z"/>
<path d="M5513 1096 c0 -7 11 -13 24 -14 16 -1 23 3 20 11 -5 15 -44 18 -44 3z"/>
<path d="M6255 1060 c1 -11 10 -28 20 -38 12 -12 15 -13 9 -2 -5 8 -9 21 -11
29 -3 23 -20 33 -18 11z"/>
<path d="M6340 770 c0 -5 7 -10 16 -10 8 0 12 5 9 10 -3 6 -10 10 -16 10 -5 0
-9 -4 -9 -10z"/>
<path d="M6071 757 c-8 -10 -7 -14 4 -14 8 0 12 4 9 9 -3 4 0 8 5 8 6 0 11 -7
11 -15 0 -8 5 -15 11 -15 5 0 7 5 3 12 -5 8 -2 9 9 5 10 -3 17 -2 17 2 0 21
-52 27 -69 8z"/>
</g>
</svg>
